<?xml version="1.0" encoding="UTF-8"?>
<svg id="Capa_1" data-name="Capa 1" xmlns="http://www.w3.org/2000/svg" viewBox="0 0 329.45 329.45">
  <defs>
    <style>
      .cls-1 {
        fill: #f7c1ca;
      }

      .cls-2 {
        fill: #fff;
      }
    </style>
  </defs>
  <path class="cls-1" d="M329.45,164.72C329.45,73.75,255.7,0,164.72,0S0,73.75,0,164.72c0,82.22,60.24,150.36,138.98,162.72v-115.11h-41.82v-47.62h41.82v-36.29c0-41.28,24.59-64.09,62.22-64.09,18.02,0,36.87,3.22,36.87,3.22v40.54h-20.77c-20.46,0-26.84,12.7-26.84,25.72v30.9h45.68l-7.3,47.62h-38.38v115.11c78.75-12.36,138.98-80.5,138.98-162.72Z"/>
  <path class="cls-2" d="M228.84,212.34l7.3-47.62h-45.68v-30.9c0-13.03,6.38-25.72,26.84-25.72h20.77v-40.54s-18.85-3.22-36.87-3.22c-37.63,0-62.22,22.8-62.22,64.09v36.29h-41.82v47.62h41.82v115.11c8.39,1.32,16.98,2,25.74,2s17.35-.69,25.74-2v-115.11h38.38Z"/>
</svg>