<?xml version="1.0" encoding="UTF-8"?>
<svg id="Capa_1" data-name="Capa 1" xmlns="http://www.w3.org/2000/svg" viewBox="0 0 800 800">
  <defs>
    <style>
      .cls-1 {
        fill: #f7c1ca;
      }
    </style>
  </defs>
  <path class="cls-1" d="M652.8,746.08H147.2c-28.83-7.07-51.29-29.39-51.3-61.06l-.1-364.55c.58-5.94,2.17-10.74,6.07-14.64l75.04-75.09.16-157.8c.01-11.09,9.82-18.6,20.33-19.04h405.17c11.52.45,20.43,8.72,20.44,20.36l.07,156.48,74.99,75.04c3.92,3.93,5.56,8.69,6.11,14.69l-.1,364.54c0,31.72-22.42,54.01-51.29,61.07ZM472.9,502.64l109.62-109.69-.03-298.46H217.51s-.03,298.49-.03,298.49l109.8,109.77,145.62-.11ZM176.85,352.16l-.19-63.61-31.94,31.69,32.13,31.93ZM655.22,320.13l-32.09-31.8.2,63.61,31.89-31.81ZM290.2,523l-153.81-153.78.05,307.46,153.76-153.68ZM663.5,676.67l.04-307.3-153.78,153.64,153.74,153.66ZM634.67,705.5l-161.82-162.15-145.62-.02-162.18,162.21,469.62-.04Z"/>
</svg>