<?xml version="1.0" encoding="UTF-8"?>
<svg id="Capa_1" data-name="Capa 1" xmlns="http://www.w3.org/2000/svg" viewBox="0 0 329.45 329.45">
  <defs>
    <style>
      .cls-1 {
        fill: #f7c1ca;
      }

      .cls-2 {
        fill: #fff;
      }
    </style>
  </defs>
  <circle class="cls-1" cx="164.72" cy="164.72" r="164.72"/>
  <g>
    <path class="cls-2" d="M164.72,79.7c27.69,0,30.97.11,41.91.6,10.11.46,15.6,2.15,19.26,3.57,4.84,1.88,8.3,4.13,11.93,7.76,3.63,3.63,5.88,7.08,7.76,11.93,1.42,3.65,3.11,9.15,3.57,19.26.5,10.94.6,14.22.6,41.91s-.11,30.97-.6,41.91c-.46,10.11-2.15,15.6-3.57,19.26-1.88,4.84-4.13,8.3-7.76,11.93-3.63,3.63-7.08,5.88-11.93,7.76-3.65,1.42-9.15,3.11-19.26,3.57-10.93.5-14.21.6-41.91.6s-30.97-.11-41.91-.6c-10.11-.46-15.6-2.15-19.26-3.57-4.84-1.88-8.3-4.13-11.93-7.76-3.63-3.63-5.88-7.08-7.76-11.93-1.42-3.65-3.11-9.15-3.57-19.26-.5-10.94-.6-14.22-.6-41.91s.11-30.97.6-41.91c.46-10.11,2.15-15.6,3.57-19.26,1.88-4.84,4.13-8.3,7.76-11.93,3.63-3.63,7.08-5.88,11.93-7.76,3.65-1.42,9.15-3.11,19.26-3.57,10.94-.5,14.22-.6,41.91-.6M164.72,61.01c-28.17,0-31.7.12-42.76.62-11.04.5-18.58,2.26-25.18,4.82-6.82,2.65-12.6,6.2-18.37,11.96-5.77,5.77-9.31,11.55-11.96,18.37-2.56,6.6-4.32,14.14-4.82,25.18-.5,11.06-.62,14.59-.62,42.76s.12,31.7.62,42.76c.5,11.04,2.26,18.58,4.82,25.18,2.65,6.82,6.2,12.6,11.96,18.37,5.77,5.77,11.55,9.31,18.37,11.96,6.6,2.56,14.14,4.32,25.18,4.82,11.06.5,14.59.62,42.76.62s31.7-.12,42.76-.62c11.04-.5,18.58-2.26,25.18-4.82,6.82-2.65,12.6-6.2,18.37-11.96,5.77-5.77,9.31-11.55,11.96-18.37,2.56-6.6,4.32-14.14,4.82-25.18.5-11.06.62-14.59.62-42.76s-.12-31.7-.62-42.76c-.5-11.04-2.26-18.58-4.82-25.18-2.65-6.82-6.2-12.6-11.96-18.37-5.77-5.77-11.55-9.31-18.37-11.96-6.6-2.56-14.14-4.32-25.18-4.82-11.06-.5-14.59-.62-42.76-.62h0Z"/>
    <path class="cls-2" d="M164.72,111.46c-29.41,0-53.26,23.84-53.26,53.26s23.84,53.26,53.26,53.26,53.26-23.84,53.26-53.26-23.84-53.26-53.26-53.26ZM164.72,199.29c-19.09,0-34.57-15.48-34.57-34.57s15.48-34.57,34.57-34.57,34.57,15.48,34.57,34.57-15.48,34.57-34.57,34.57Z"/>
    <circle class="cls-2" cx="220.09" cy="109.36" r="12.45"/>
  </g>
</svg>