<?xml version="1.0" encoding="UTF-8"?>
<svg id="Capa_1" data-name="Capa 1" xmlns="http://www.w3.org/2000/svg" viewBox="0 0 800 800">
  <defs>
    <style>
      .cls-1 {
        fill: #f7c1ca;
      }
    </style>
  </defs>
  <path class="cls-1" d="M613.95,745.68H166.47c-29.12-7.02-50.99-29.49-51.24-60.84l-.17-20.51c-31.37-.05-53.76-22.09-60.8-51.14v-18.93c7.03-28.96,29.28-51.04,60.84-51.11l.02-81.61c-31.39-.02-53.84-22.1-60.86-51.14v-18.93l1.05-.68c5.07-29.01,29.54-50.19,59.77-50.52l.05-84.22c-31.41-.01-53.84-22.1-60.87-51.14v-18.93c7.05-28.95,29.25-51.06,60.73-51.06l.26-21.73c.31-25.94,22.19-58.87,53.34-58.88l443.23-.02c30.5,0,52.82,32.08,53.22,57.54l.35,22.71,21.17.23c27.1.3,59.17,22.86,59.17,54.4v420.8c0,31.52-32.07,54.12-59.17,54.43l-21.17.24-.31,21.57c-.44,30.79-22.63,52.53-51.13,59.46ZM155.68,542.83l40.57.22c33.75.18,60.22,27.17,60.6,60.01.37,32.67-25.49,61.05-59.23,61.28l-41.95.28-.06,18.85c-.04,12.79,8.88,21.67,21.9,21.67l426.73-.04c11.51,0,20.51-8.95,20.51-20.54V114.64c0-12.57-9.77-20.57-21.85-20.57H177.51c-12.22,0-21.65,8.13-21.75,20.31l-.16,20.16,40.65.24c33.75.2,60.23,27.17,60.6,60.01.37,32.68-25.48,61.06-59.23,61.28l-41.97.27v83.7s40.59.22,40.59.22c33.77.19,60.23,27.17,60.6,60.01.37,32.68-25.49,61.06-59.23,61.28l-41.98.27.04,81ZM196.91,215.64c11.94-.01,19.79-10.81,19.49-20.75-.32-10.43-8.83-19.68-20.18-19.68h-81.11c-11.8,0-20.51,10-20.18,20.84.31,10.34,8.81,19.68,20.18,19.67l81.8-.09ZM705.76,194.72c-.03-11.21-10-19.41-19.97-19.45l-20.48-.09v81.12s40.62,0,40.62,0l-.18-61.58ZM705.88,377.89v-81.05s-40.57.01-40.57.01v81.14s40.57-.11,40.57-.11ZM196.91,421.13c11.95-.01,19.79-10.81,19.49-20.75-.32-10.44-8.84-19.68-20.18-19.68h-81.11c-11.8,0-20.51,10-20.18,20.84.31,10.34,8.81,19.68,20.18,19.67l81.8-.09ZM705.88,502.27v-83.75s-40.57.01-40.57.01v83.85s40.57-.11,40.57-.11ZM705.88,603.2v-60.31s-40.57,0-40.57,0v81.12s20.33-.07,20.33-.07c11.21-.04,20.07-8.99,20.23-20.74ZM196.91,623.91c11.95-.01,19.79-10.81,19.49-20.75-.32-10.43-8.84-19.68-20.18-19.68h-81.11c-11.8,0-20.51,10-20.18,20.84s8.81,19.68,20.18,19.67l81.8-.09Z"/>
  <path class="cls-1" d="M543.57,397.51c-.72-59.53-51.04-104.31-108.46-100.31-57.37,4-100.17,55.55-93.48,112.62,6.72,57.36,60.02,98.14,118.03,88.18,10.37-1.78,20.03-4.85,29.64-9.04,11.26-4.92,23.56-.19,27.9,10.48,4.9,12.06-1.89,22.9-13.63,27.7-28.72,11.75-59.11,16.44-89.5,10.12-74.47-15.48-123.05-85.61-112.11-159.87,10.9-74,78.2-127.16,153.02-120.43,74.08,6.67,132.44,70.85,128.74,146.82-1.12,23.05-17.2,41.73-35.94,49.93-22.77,9.95-46.52,5.74-65.02-10.21-22.29,19.39-53.72,20.64-77.05,3.12s-30.94-47.89-18.07-74.73c11.79-24.61,39.54-39.07,67.93-32.79,26.91,5.95,47.08,29.98,47.51,59.21.17,11.29,9.32,19.9,19.67,20.12,10.94.24,20.97-8.1,20.82-20.92ZM438.24,378.53c-12.09,2.57-18.33,14.27-15.51,24.81,2.73,10.22,13.02,17,23.57,14.67,10.52-2.32,17.96-13,15.66-23.84-2.13-10.01-12.31-18.07-23.72-15.64Z"/>
</svg>