<?xml version="1.0" encoding="UTF-8"?>
<svg id="Capa_1" data-name="Capa 1" xmlns="http://www.w3.org/2000/svg" viewBox="0 0 800 800">
  <defs>
    <style>
      .cls-1 {
        fill: #f7c1ca;
      }
    </style>
  </defs>
  <path class="cls-1" d="M745.78,186.36v508.31c-6.32,26.64-24.73,45.06-51.37,51.37H104.99c-24.43-6.59-50.77-25.47-50.77-54.58l.03-501.89c0-31.53,32.28-54.1,59.19-54.41l21.23-.25.29-21.72c.45-33.34,28.51-59.58,61.25-59.23,32.18.35,59.45,26.33,59.96,59.24l.34,21.79h83.61s.34-21.81.34-21.81c.52-33.34,28.51-59.58,61.25-59.22,32.18.35,59.45,26.33,59.96,59.24l.34,21.79h80.9s.34-21.81.34-21.81c.52-33.34,28.51-59.58,61.25-59.22,32.17.35,59.42,26.33,59.96,59.25l.36,21.66,21.54.39c30.79.56,52.52,22.6,59.45,51.1ZM215.85,195.23l-.04-80.51c0-11.85-9.96-20.47-20.84-20.16-10.31.3-19.66,8.74-19.66,20.17v81.09c0,11.81,10.01,20.53,20.83,20.19,10.43-.32,19.71-8.71,19.71-20.78ZM421.33,195.23l-.04-80.51c0-11.85-9.96-20.47-20.84-20.16-10.31.3-19.66,8.74-19.66,20.17v81.09c0,11.81,10.02,20.53,20.83,20.19,10.43-.32,19.71-8.71,19.71-20.78ZM624.12,195.23l-.04-80.51c0-11.85-9.96-20.47-20.84-20.16-10.31.3-19.66,8.74-19.66,20.17v81.09c0,11.81,10.02,20.53,20.83,20.19s19.71-8.71,19.71-20.78ZM542.75,175.54h-80.8s-.36,23.09-.36,23.09c-.52,33.14-29.03,58.21-61.22,57.84-32.23-.37-59.43-26.06-59.93-59.22l-.32-21.71h-83.62s-.32,21.72-.32,21.72c-.5,33.65-28.47,59.55-61.27,59.21-32.18-.33-59.45-26.03-59.96-59.22l-.33-21.71h-18.96c-11.42-.22-21.46,8.29-21.46,20.37v104.01s611.02,0,611.02,0v-104.01c0-11.55-9.26-19.93-20.14-20.35l-20.31-.02-.39,23.09c-.55,33.13-29.02,58.21-61.22,57.84s-59.15-26.06-59.9-59.22l-.49-21.72ZM685.24,705.49c12.35-.99,19.32-9.13,20-20.51l-.05-344.48H94.21s-.05,343.16-.05,343.16c-.08,12.42,8.1,21.35,20.59,21.83h570.5Z"/>
  <path class="cls-1" d="M644.81,664.94l-489.56-.02c-11.56,0-20.51-8.99-20.51-20.39v-243.08c0-11.38,8.93-20.4,20.5-20.4h488.9c11.57,0,20.5,9.01,20.5,20.4v243.03c0,11.31-8,19.35-19.83,20.46ZM256.41,502.67v-81.08s-81.13,0-81.13,0v81.14s81.13-.06,81.13-.06ZM380.78,502.67v-81.09s-83.83,0-83.83,0v81.14s83.83-.06,83.83-.06ZM502.45,502.67v-81.08s-81.13,0-81.13,0v81.14s81.13-.06,81.13-.06ZM624.12,502.67v-81.08s-81.13,0-81.13,0v81.14s81.13-.06,81.13-.06ZM256.41,624.34v-81.08s-81.13,0-81.13,0v81.14s81.13-.06,81.13-.06ZM380.78,624.34v-81.09s-83.83,0-83.83,0v81.14s83.83-.06,83.83-.06ZM502.45,624.34v-81.08s-81.13,0-81.13,0v81.14s81.13-.06,81.13-.06ZM624.12,624.34v-81.08s-81.13,0-81.13,0v81.14s81.13-.06,81.13-.06Z"/>
</svg>