<?xml version="1.0" encoding="UTF-8"?>
<svg id="Capa_1" data-name="Capa 1" xmlns="http://www.w3.org/2000/svg" viewBox="0 0 800 800">
  <defs>
    <style>
      .cls-1 {
        fill: #f7c1ca;
      }
    </style>
  </defs>
  <path class="cls-1" d="M604.22,273.82v300.21c-3.73,15.73-14.61,26.62-30.34,30.34H225.76c-14.43-3.89-29.99-15.04-29.99-32.23l.02-296.42c0-18.62,19.06-31.95,34.96-32.14l12.54-.15.17-12.83c.26-19.69,16.84-35.19,36.18-34.98,19,.2,35.11,15.55,35.41,34.99l.2,12.87h49.38s.2-12.88.2-12.88c.31-19.69,16.84-35.19,36.17-34.98s35.11,15.55,35.41,34.99l.2,12.87h47.78s.2-12.88.2-12.88c.31-19.69,16.84-35.19,36.17-34.98,19,.21,35.09,15.55,35.41,34.99l.21,12.79,12.72.23c18.18.33,31.02,13.35,35.11,30.18ZM291.24,279.06l-.02-47.55c0-7-5.88-12.09-12.31-11.91-6.09.18-11.61,5.16-11.61,11.91v47.89c0,6.97,5.91,12.12,12.3,11.93s11.64-5.15,11.64-12.27ZM412.6,279.06l-.02-47.55c0-7-5.88-12.09-12.31-11.91-6.09.18-11.61,5.16-11.61,11.91v47.89c0,6.97,5.92,12.12,12.3,11.93s11.64-5.15,11.64-12.27ZM532.37,279.06l-.02-47.55c0-7-5.88-12.09-12.31-11.91-6.09.18-11.61,5.16-11.61,11.91v47.89c0,6.97,5.92,12.12,12.3,11.93s11.64-5.15,11.64-12.27ZM484.31,267.43h-47.72s-.21,13.64-.21,13.64c-.31,19.57-17.14,34.38-36.16,34.16s-35.1-15.39-35.39-34.97l-.19-12.82h-49.39s-.19,12.83-.19,12.83c-.29,19.88-16.82,35.17-36.18,34.97s-35.11-15.37-35.41-34.98l-.2-12.82h-11.2c-6.74-.13-12.67,4.9-12.67,12.03v61.43s360.87,0,360.87,0v-61.43c0-6.82-5.47-11.77-11.9-12.02h-12s-.23,13.63-.23,13.63c-.33,19.57-17.14,34.38-36.16,34.16s-34.94-15.39-35.38-34.98l-.29-12.83ZM568.47,580.42c7.29-.58,11.41-5.39,11.82-12.11l-.03-203.45H219.39s-.03,202.67-.03,202.67c-.05,7.34,4.78,12.61,12.16,12.89h336.94Z"/>
  <path class="cls-1" d="M544.59,556.47H255.45c-6.83-.01-12.11-5.32-12.11-12.06v-143.57c0-6.72,5.28-12.05,12.11-12.05h288.75c6.83,0,12.11,5.32,12.11,12.05v143.54c0,6.68-4.72,11.43-11.71,12.08ZM315.19,460.64v-47.89s-47.91,0-47.91,0v47.92s47.91-.04,47.91-.04ZM388.65,460.64v-47.89s-49.51,0-49.51,0v47.92s49.51-.04,49.51-.04ZM460.51,460.64v-47.89s-47.91,0-47.91,0v47.92s47.91-.04,47.91-.04ZM532.37,460.64v-47.89s-47.91,0-47.91,0v47.92s47.91-.04,47.91-.04ZM315.19,532.5v-47.89s-47.91,0-47.91,0v47.92s47.91-.04,47.91-.04ZM388.65,532.5v-47.89s-49.51,0-49.51,0v47.92s49.51-.04,49.51-.04ZM460.51,532.5v-47.89s-47.91,0-47.91,0v47.92s47.91-.04,47.91-.04ZM532.37,532.5v-47.89s-47.91,0-47.91,0v47.92s47.91-.04,47.91-.04Z"/>
</svg>