<?xml version="1.0" encoding="UTF-8"?>
<svg id="Capa_1" data-name="Capa 1" xmlns="http://www.w3.org/2000/svg" viewBox="0 0 800 800">
  <defs>
    <style>
      .cls-1 {
        fill: #f7c1ca;
      }
    </style>
  </defs>
  <path class="cls-1" d="M745.7,187.75v424.49c-6.98,28.88-29.51,51.31-61.06,51.31H114.44c-28.91-.01-60.14-23.29-60.14-54.48V190.91c0-31.18,31.21-54.46,60.15-54.46h570.19c31.59-.01,54.09,22.42,61.07,51.29ZM684.6,623.05c11.54,0,20.54-8.97,20.54-20.51V197.46c0-12.55-9.78-20.53-21.88-20.53H115.98c-12.1,0-21.88,7.98-21.88,20.53v405.08c0,11.54,9,20.51,20.54,20.51h569.95Z"/>
  <path class="cls-1" d="M317.9,582.27l-122.33.1c-34.04.03-60.27-27.14-60.88-60.62l-.03-18.87c-.11-64.3,46.76-115.92,111.9-123.25-43.44-6.95-73.54-43.1-71.15-85.8,2.38-42.42,37.78-75.94,80.25-76.28,42.59-.34,78.44,32.71,81.46,75,3.09,43.23-27.17,80.04-71.05,87.07,64.55,7.28,111.82,58.13,111.85,121.89v21.67c-1.41,32-26.36,59.05-60.03,59.08ZM252.24,258.5c-23.57,2.37-38.74,23.42-35.96,45.26,2.77,21.76,22.37,37.23,44.13,35.03,22.13-2.24,38.39-22.05,36.08-44.28s-21.05-38.35-44.25-36.02ZM317.81,541.88c11.37,0,19.54-10.12,19.55-20.01l.02-20.55c.04-45.48-37.19-81.32-81.73-80.96-43.93.35-80.44,35.96-80.4,80.98l.02,20.44c0,10.91,9.02,20.16,20.24,20.16l122.29-.06Z"/>
  <path class="cls-1" d="M644.92,379.64l-203.27.06c-11.74,0-19.95-9.33-20.26-19.62-.33-10.86,8.06-20.9,20.25-20.9h202.55c11.69,0,19.92,9.24,20.24,19.65.3,9.8-7.1,20.81-19.52,20.82Z"/>
  <path class="cls-1" d="M644.92,460.75l-203.27.06c-11.74,0-19.95-9.33-20.26-19.62-.33-10.86,8.06-20.9,20.25-20.9h202.55c11.69,0,19.92,9.24,20.24,19.65.3,9.8-7.1,20.81-19.52,20.82Z"/>
  <path class="cls-1" d="M644.92,541.86l-203.27.06c-11.74,0-19.95-9.33-20.26-19.62-.33-10.86,8.06-20.9,20.25-20.9h202.55c11.69,0,19.92,9.24,20.24,19.65.3,9.8-7.1,20.81-19.52,20.82Z"/>
  <path class="cls-1" d="M604.46,298.5l-122.34.08c-11.57,0-19.88-9.32-20.19-19.62-.33-10.87,8.16-20.89,20.18-20.89h121.6c11.53,0,19.85,9.23,20.18,19.63.31,9.86-7.24,20.79-19.44,20.79Z"/>
</svg>