<?xml version="1.0" encoding="UTF-8"?>
<svg id="Capa_1" data-name="Capa 1" xmlns="http://www.w3.org/2000/svg" viewBox="0 0 329.45 329.45">
  <defs>
    <style>
      .cls-1 {
        fill: #f7c1ca;
      }

      .cls-2 {
        fill: #fff;
      }
    </style>
  </defs>
  <circle class="cls-1" cx="164.72" cy="164.72" r="164.72"/>
  <path class="cls-2" d="M257.02,110.29c0-.96-.03-.99-1.03-.98-2.41.02-4.8-.27-7.17-.62-8.62-1.3-36.57-15.96-41.3-39.95-.09-.47-1.15-6.42-1.14-8.96,0-1.13-.01-1.14-1.13-1.15-.26,0-.52,0-.78,0-10.94,0-21.88,0-32.82,0-2.2,0-1.89-.28-1.89,1.94,0,47.44,0,94.88,0,142.33,0,1.77-.05,3.54-.36,5.27-1.65,9.18-6.35,16.36-14.31,21.27-6.89,4.25-14.38,5.46-22.32,3.89-2.5-.5-4.85-1.44-7.21-2.37-.19-.17-.38-.35-.57-.52-.79-.66-1.66-1.21-2.51-1.8-10.13-7.01-14.93-16.75-13.47-28.92,1.48-12.35,8.59-20.73,20.3-25.05,3.49-1.29,7.17-1.82,10.9-1.62,2.4.13,4.8.43,7.13,1.1.81.23,1.24-.06,1.28-.91.01-.3.02-.6.02-.9,0-8.52-.32-27.12-.36-27.16.02-2.45.02-4.9.06-7.36.01-.71-.34-.83-.93-.9-4.41-.52-8.83-.62-13.26-.3-6.13.45-12.07,1.71-17.85,3.78-9.21,3.31-17.3,8.44-24.28,15.28-6,5.87-10.71,12.67-14.17,20.32-3.31,7.33-5.2,15.02-5.73,23.02-.23,3.47-.18,6.96.14,10.44.44,4.81,1.36,9.53,2.82,14.13,4.21,13.22,11.86,24.06,22.71,32.67,1.1.87,2.16,1.83,3.48,2.4,0,0,0,0,0,0,.55.49,1.11.98,1.66,1.47,1.76,1.32,3.64,2.46,5.6,3.43,12.16,6.01,24.97,8.45,38.46,6.8,17.52-2.14,32.11-9.9,43.6-23.27,10.81-12.59,16.07-27.36,16.16-43.88.14-23.63.03-47.25.05-70.88,0-.56-.33-1.36.3-1.65.49-.22.97.42,1.43.72,8.79,5.78,18.27,9.95,28.54,12.3,5.98,1.37,12.01,2.2,18.16,2.19,1.94,0,2.2-.1,2.2-2.02.01-8.39-.43-31.33-.43-33.56Z"/>
</svg>